<svg width="121" height="76" viewBox="0 0 121 76" fill="none" xmlns="http://www.w3.org/2000/svg">
<path fill-rule="evenodd" clip-rule="evenodd" d="M84.2785 48.8571H106.92C110.654 48.8571 114.235 47.4273 116.876 44.8822C119.517 42.337 121 38.8851 121 35.2857C121 31.6863 119.517 28.2344 116.876 25.6893C114.235 23.1441 110.654 21.7143 106.92 21.7143H28.7345C27.6888 21.7137 26.664 21.4326 25.7747 20.9024C24.8854 20.3722 24.1668 19.6139 23.6994 18.7123L21.1762 13.8591C20.7088 12.9576 19.9902 12.1992 19.1009 11.669C18.2116 11.1388 17.1867 10.8577 16.1411 10.8571H5.63714C4.70465 10.8563 3.78655 11.0787 2.96523 11.5043C2.14391 11.9299 1.44508 12.5454 0.93144 13.2955C0.417804 14.0457 0.105441 14.907 0.0223862 15.8022C-0.0606687 16.6974 0.0881833 17.5985 0.455583 18.4246L12.5252 45.5674C12.9598 46.5446 13.6825 47.3772 14.6036 47.962C15.5248 48.5468 16.6038 48.8581 17.7068 48.8571H39.4637C40.3836 48.8577 41.2893 49.0754 42.1018 49.4913C42.9142 49.9072 43.6086 50.5085 44.1242 51.2428C44.6399 51.977 44.9611 52.8219 45.0598 53.7034C45.1584 54.5849 45.0316 55.4763 44.6903 56.2997L39.6158 68.5629C39.2758 69.3855 39.1499 70.2759 39.2488 71.1562C39.3478 72.0366 39.6687 72.8802 40.1836 73.6136C40.6984 74.347 41.3916 74.9479 42.2027 75.3639C43.0137 75.7798 43.918 75.9982 44.8367 76H56.3375C57.1822 76.0003 58.0161 75.8175 58.7775 75.4651C59.5389 75.1127 60.2083 74.5998 60.7362 73.9643L79.8855 50.8929C80.4128 50.2581 81.0813 49.7455 81.8417 49.3932C82.6021 49.0408 83.4348 48.8576 84.2785 48.8571ZM44.9663 16.2857H71.7189L60.7362 2.17143C60.2116 1.49722 59.5313 0.950002 58.7493 0.573109C57.9672 0.196216 57.1049 0 56.2305 0H45.6309C44.6712 0.000493834 43.7276 0.237332 42.8896 0.68804C42.0515 1.13875 41.3469 1.78838 40.8425 2.57528C40.3381 3.36219 40.0506 4.26027 40.0075 5.18432C39.9643 6.10836 40.1668 7.02772 40.5958 7.85514L44.9663 16.2857Z" fill="#EF4118"/>
</svg>
