<svg width="213" height="118" viewBox="0 0 213 118" fill="none" xmlns="http://www.w3.org/2000/svg">
<ellipse cx="106.5" cy="100.5" rx="106.5" ry="17.5" fill="#AEAEAE"/>
<path d="M182 88.5C182 94.2374 179.386 97.94 176.084 100.147C172.863 102.301 169.052 103 166.5 103H45C39.8358 103 36.4382 100.528 34.3691 97.4648C32.3475 94.4715 31.5923 90.9315 31.501 88.5576L31.5 88.5293V63.1299L32.8643 63.0059C34.4439 62.8622 36.8889 62.1323 38.9082 60.4287C40.8725 58.7715 42.5 56.1443 42.5 52C42.5 47.8638 40.8845 45.5385 39.0088 44.2119C37.0501 42.8266 34.6509 42.4262 33.0684 42.498L31.5 42.5693V14.5C31.5 9.38367 33.7622 6.05695 36.6484 4.06543C39.4554 2.1287 42.7725 1.5 45 1.5H58V3C58 4.66333 58.5339 7.20212 60.0996 9.28613C61.6108 11.2976 64.1625 13 68.5 13C72.8375 13 75.3892 11.2976 76.9004 9.28613C78.4661 7.20212 79 4.66333 79 3V1.5H168C173.336 1.5 176.858 3.94551 179.015 7.0127C181.121 10.0094 181.907 13.5575 181.999 15.9424L182 15.9707V88.5Z" fill="white" stroke="#6E6E6E" stroke-width="3"/>
<path d="M167 101.5H68V14.5C77.6 14.5 80 6.83333 80 3H168.5C178.1 3 180.833 11.6667 181 16V88.5C181 98.9 171.667 101.5 167 101.5Z" fill="#CECECE"/>
<path d="M106 85L121.5 77L137 85" stroke="#6E6E6E" stroke-width="3" stroke-linecap="round"/>
<path d="M76 48C80.5 47.1667 92.7 43.2 105.5 34" stroke="#6E6E6E" stroke-width="3" stroke-linecap="round"/>
<path d="M68 19.5V96" stroke="#6E6E6E" stroke-width="3" stroke-linecap="round" stroke-dasharray="8 8"/>
<circle cx="99.5" cy="59" r="5.5" fill="#6E6E6E"/>
<path d="M168.5 48C164 47.1667 151.8 43.2 139 34" stroke="#6E6E6E" stroke-width="3" stroke-linecap="round"/>
<circle cx="5.5" cy="5.5" r="5.5" transform="matrix(-1 0 0 1 150.5 53.5)" fill="#6E6E6E"/>
</svg>
