<svg width="31" height="32" viewBox="0 0 31 32" fill="none" xmlns="http://www.w3.org/2000/svg">
<path opacity="0.987" fill-rule="evenodd" clip-rule="evenodd" d="M13.6281 0.13893C15.2861 -0.0463099 16.2672 -0.0463099 18.0487 0.13893C21.2022 0.605677 24.1255 2.06333 26.3959 4.30111C24.8617 5.75132 23.3476 7.2227 21.8541 8.71484C18.994 6.29072 15.8014 5.73119 12.2765 7.03625C9.69082 8.22544 7.89026 10.1525 6.87487 12.8176C5.21558 11.5822 3.5779 10.3181 1.96259 9.02586C1.85033 8.96677 1.72211 8.94514 1.59668 8.96411C4.16259 4.01677 8.17231 1.07428 13.6258 0.136643" fill="#F44336"/>
<path opacity="0.997" fill-rule="evenodd" clip-rule="evenodd" d="M1.59227 8.9526C1.72186 8.93278 1.84459 8.95337 1.96046 9.01435C3.57578 10.3066 5.21345 11.5707 6.87274 12.806C6.61163 13.8444 6.44704 14.9047 6.38105 15.9734C6.43747 17.0071 6.60136 18.0217 6.87274 19.0173L1.71576 23.1223C-0.529987 18.4296 -0.571151 13.7063 1.59227 8.9526Z" fill="#FFC107"/>
<path opacity="0.999" fill-rule="evenodd" clip-rule="evenodd" d="M26.151 28.0954C24.5453 26.6793 22.8642 25.3509 21.1152 24.1161C22.8685 22.8782 23.9327 21.1797 24.3077 19.0209H15.7158V13.0544C20.6708 13.0132 25.6235 13.0551 30.5739 13.1801C31.513 18.2799 30.4283 22.8782 27.3196 26.9748C26.95 27.3677 26.5584 27.7417 26.151 28.0954Z" fill="#448AFF"/>
<path opacity="0.993" fill-rule="evenodd" clip-rule="evenodd" d="M6.8728 19.0312C8.74807 23.692 12.1861 25.8676 17.1868 25.5581C18.5905 25.3956 19.9364 24.9052 21.1157 24.1265C22.8659 25.3645 24.5445 26.6909 26.1515 28.1057C23.6053 30.3937 20.359 31.7512 16.9421 31.9569C16.1658 32.0189 15.3857 32.0189 14.6094 31.9569C8.78847 31.2708 4.4906 28.3298 1.71582 23.134L6.8728 19.0312Z" fill="#43A047"/>
</svg>
