<?xml version="1.0" encoding="UTF-8"?>
<svg id="Camada_1" xmlns="http://www.w3.org/2000/svg" version="1.1" viewBox="60 280 480 250" preserveAspectRatio="xMidYMid meet">
  <!-- Generator: Adobe Illustrator 29.8.2, SVG Export Plug-In . SVG Version: 2.1.1 Build 3)  -->
  <defs>
    <style>
      .st0 {
        fill: #2a2ad7;
      }

      .st1 {
        fill: #374998;
      }
    </style>
  </defs>
  <!-- Removed stray negative-positioned helper paths from original export (outside cropped viewBox) -->
  <!-- <path class="st1" d="M-648,465.7s.5,0,.7-.7l.4,1-.9.7v-1Z"/> -->
  <path class="st0" d="M502.9,313.4l-230.5,43.7-206.9-20.1-9.2,150.4,74.3,41.1,233.2-48.1,154.3-2.1,20.9-41.3-36.1-123.6ZM93.8,381.6c0-.3.1-.9,1.4-1,5.6-.7,25.8-3.4,33.2-4.4,9.6-1.3,38.2-5.1,38.2-5.1l1.6,20.8-71,14.5-3.4-24.8ZM138.5,474.1l-33,6.2c-1.7-14.7-4.1-37.9-6.3-59,0,0,57-8.3,64.9-9.9.9,4.4,1.2,12.5,1.2,12.5-15.8,3.9-16.6,4.2-29.3,6.4,1.8,15.1,2.6,26.1,4.4,41.3.1,1.2-.7,2.3-1.9,2.4ZM219.1,476.9c-.9.1-1.8-.5-2-1.4-2.7-10.6-12.1-41-12.1-41-6.4-.1-10.7,0-17.3.1-1.2,7.1-3.5,20-5.4,30.3l-18.2,3.7c5.3-24.5,12.6-56.8,17.7-80.2.1-.5.8-2.1,3.9-2l29.8.7c3.3,10.1,6.5,20.2,9.8,30.2,4.8,14.6,14,40.3,18.8,54.9l-25,4.7ZM282.2,460.9c-32.8,6.6-34.7-20.4-37.6-35.6-2-10.5-7.3-37.6-7.3-37.6,0,0,16.2.5,17.2.5,1,0,1.8.7,2,1.6.7,3.6,3.1,16.8,6,31.8,3.6,19.1,6.9,27.8,17.9,25.8,12.9-2.3,11.2-12.9,8.6-30-1.4-9-3.3-19.6-4.6-26.8l-1.5-8.3,15.5-4.4,13.2,68s-10.8,11.2-29.3,14.9ZM351.4,457.3l-19.9,1.8s-17-76.2-19-85.3l10.4-3c.9,0,1.6.7,1.7,1.6.2,1.6,13.1,64.7,13.2,65.1,0-.4,11.1-63,11.3-64.6,0-.9.8-1.6,1.7-1.6l16.7-1.7c-1.6,9.2-16.2,87.8-16.2,87.8ZM377.9,368.2c15.6-1.1,36.6-3.6,52.8-4.8l-1.4,15c-.1.7-.7,1.8-2.7,2.3l-48.7,11.6c-.3-10.6,0-22.9,0-24.1ZM425,398.8l1.2,18.4-45,3-1.2-18.4,45-3ZM380.5,455s-.2-9.6-.5-24.1c0,0,45.6,2.3,53.3,1.5,1,0,1.8.8,2,2.1l1.8,14.9c-16.7,1.6-39.1,3.8-56.5,5.5ZM474.7,461.5l-22.9-15.5c11-13.3,17-23.6,9.7-30.1-18.2-16.5-19.2-23.1-19.5-32.2-.6-20.6,17.5-35.3,17.5-35.3l21.2,8.1c.4.2,1.4.7.3,1.7h0c-23.6,21.1-10.8,34.6-10.8,34.6,13,14.4,20.6,14.1,20.6,29.1s-14.1,37-16.2,39.5Z"/>
  <!-- <path class="st1" d="M-698.1,396.5h0s-.7.1-.7.1c.2,0,.5,0,.7-.1"/> -->
</svg>