<?xml version="1.0" encoding="UTF-8"?>
<svg id="Camada_1" xmlns="http://www.w3.org/2000/svg" version="1.1" viewBox="0 0 595.3 841.9">
  <!-- Generator: Adobe Illustrator 29.8.1, SVG Export Plug-In . SVG Version: 2.1.1 Build 2)  -->
  <defs>
    <style>
      .st0 {
        fill: #2a2ad7;
      }

      .st1 {
        fill: #fff;
      }
    </style>
  </defs>
  <path class="st0" d="M160.5,225h274c32.6,0,59,26.4,59,59v274c0,32.5-26.4,59-59,59H160.5c-32.5,0-59-26.4-59-59v-274.1c0-32.5,26.4-59,59-59Z"/>
  <path class="st1" d="M335.9,453.8c2.4-.6,3.1-1.9,3.2-2.8l1.7-18c-19.5,1.4-44.8,4.4-63.5,5.7.1,1.5-.4,16.2,0,29l58.6-14h0Z"/>
  <path class="st1" d="M346.2,518.6c-.2-1.6-1.2-2.7-2.4-2.6-9.2.9-64.1-1.9-64.1-1.9.4,17.4.6,29,.6,29,20.9-2,47.8-4.7,68-6.6l-2.1-18Z"/>
  <path class="st1" d="M324.8,346.7c-4-12.1-7.9-24.2-11.9-36.4l-35.8-.8c-3.7,0-4.6,1.8-4.8,2.4-6.1,28.2-14.9,67-21.3,96.5l21.9-4.5c2.2-12.5,5-28,6.5-36.5,8-.1,13.1-.3,20.9-.1,0,0,11.3,36.6,14.5,49.3.3,1.1,1.3,1.8,2.4,1.7l30.1-5.6c-5.7-17.6-16.8-48.5-22.6-66"/>
  <path class="st1" d="M244.7,442.3c-1.1.1-1.9.9-2,2-.2,1.9-13.5,77.3-13.6,77.8,0-.5-15.6-76.4-15.9-78.3-.2-1-1-1.8-2.1-1.9l-12.6,3.6c2.4,10.9,22.8,102.6,22.8,102.6l23.9-2.2s17.6-94.6,19.4-105.6l-20.1,2h0Z"/>
  <path class="st1" d="M222.6,412c.2,1.4-.8,2.7-2.3,2.9l-39.7,7.5c-2.1-17.7-5-45.6-7.6-71,0,0,68.6-10,78.1-11.9,1.1,5.3,1.4,15.1,1.4,15.1-19,4.7-20,5.1-35.2,7.7,2.2,18.2,3.2,31.4,5.3,49.7"/>
  <path class="st1" d="M388.4,468.4s-15.4-16.3,13-41.7h0c1.3-1.2.1-1.8-.4-2l-25.5-9.8s-21.8,17.6-21.1,42.4c.3,11,1.6,18.9,23.4,38.8,8.7,7.9,1.5,20.3-11.7,36.3l27.6,18.7c2.5-3,19.4-31.2,19.4-47.5s-9.2-17.7-24.8-35.1"/>
  <path class="st1" d="M254.1,291s-34.5,4.6-46,6.1c-8.9,1.2-33.2,4.4-40,5.3-1.5.2-1.7.9-1.6,1.3l4.1,29.8,85.4-17.4-1.9-25.1h0Z"/>
  <rect class="st1" x="280.5" y="477.3" width="54.3" height="22.2" transform="translate(-31.6 21.4) rotate(-3.8)"/>
  <path class="st1" d="M412.6,299.3l-18.6,5.2,1.9,10c1.6,8.6,3.9,21.4,5.6,32.2,3.2,20.5,5.2,33.4-10.3,36.1-13.2,2.4-17.2-8.1-21.5-31.1-3.4-18.1-6.3-34-7.2-38.3-.2-1.2-1.3-2-2.4-1.9-1.2,0-20.7-.6-20.7-.6,0,0,6.4,32.5,8.8,45.2,3.5,18.4,5.8,50.8,45.2,42.9,22.2-4.5,35.3-17.9,35.3-17.9l-15.9-81.9h0Z"/>
</svg>