<?xml version="1.0" encoding="UTF-8"?>
<svg id="Camada_2" data-name="Camada 2" xmlns="http://www.w3.org/2000/svg" viewBox="0 0 391.98 391.98">
  <g id="Camada_1-2" data-name="Camada 1">
    <g>
      <path d="M58.96,0h274.05c32.55,0,58.97,26.42,58.97,58.96v274.05c0,32.54-26.42,58.97-58.97,58.97H58.96c-32.54,0-58.96-26.42-58.96-58.96V58.96C0,26.42,26.42,0,58.96,0Z" style="fill: #2a2ad7;"/>
      <path d="M234.37,228.76c2.4-.57,3.05-1.94,3.23-2.75l1.73-18.01c-19.49,1.37-44.75,4.4-63.54,5.72.11,1.52-.38,16.25,0,29.03l58.58-13.98h0Z" style="fill: #fff;"/>
      <path d="M244.69,293.59c-.19-1.56-1.21-2.67-2.36-2.56-9.18.88-64.08-1.86-64.08-1.86.35,17.44.6,29.02.6,29.02,20.95-2.02,47.84-4.68,67.99-6.63l-2.15-17.97Z" style="fill: #fff;"/>
      <path d="M223.29,121.67c-3.98-12.09-7.88-24.2-11.85-36.38l-35.82-.8c-3.74-.08-4.57,1.79-4.75,2.43-6.09,28.15-14.87,66.98-21.3,96.49l21.93-4.5c2.22-12.49,5.03-28,6.49-36.5,8-.11,13.14-.28,20.86-.12,0,0,11.27,36.59,14.52,49.34.28,1.09,1.32,1.81,2.43,1.67l30.09-5.61c-5.69-17.59-16.8-48.47-22.59-66.03" style="fill: #fff;"/>
      <path d="M143.19,217.31c-1.05.1-1.88.93-1.99,1.98-.2,1.94-13.49,77.29-13.56,77.78-.1-.48-15.58-76.41-15.88-78.34-.16-1.04-1.03-1.82-2.09-1.87l-12.56,3.6c2.45,10.95,22.85,102.62,22.85,102.62l23.9-2.17s17.56-94.56,19.43-105.62l-20.11,2.02h0Z" style="fill: #fff;"/>
      <path d="M121.06,186.95c.17,1.43-.84,2.74-2.27,2.92l-39.73,7.51c-2.1-17.73-4.99-45.57-7.56-71.04,0,0,68.6-10.03,78.06-11.87,1.06,5.32,1.43,15.09,1.43,15.09-19.04,4.67-20.03,5.05-35.23,7.7,2.19,18.17,3.15,31.36,5.3,49.68" style="fill: #fff;"/>
      <path d="M286.9,243.35s-15.35-16.3,13.01-41.69h-.02c1.27-1.16.11-1.82-.36-2.02l-25.48-9.8s-21.82,17.62-21.08,42.44c.33,10.97,1.55,18.95,23.45,38.75,8.73,7.9,1.5,20.29-11.71,36.26l27.56,18.66c2.47-3.04,19.44-31.2,19.44-47.53,0-18.15-9.16-17.72-24.81-35.07" style="fill: #fff;"/>
      <path d="M152.61,66.03s-34.49,4.56-45.99,6.08c-8.95,1.18-33.25,4.4-39.99,5.29-1.47.19-1.65.89-1.63,1.26l4.13,29.83,85.4-17.41-1.91-25.05h0Z" style="fill: #fff;"/>
      <rect x="178.94" y="252.3" width="54.28" height="22.22" transform="translate(-16.96 14.2) rotate(-3.79)" style="fill: #fff;"/>
      <path d="M311.07,74.24l-18.64,5.24,1.86,10c1.58,8.63,3.88,21.44,5.56,32.25,3.2,20.53,5.19,33.36-10.31,36.1-13.23,2.35-17.16-8.06-21.5-31.06-3.43-18.11-6.28-34.03-7.17-38.3-.23-1.15-1.26-1.97-2.44-1.94-1.16.02-20.71-.57-20.71-.57,0,0,6.39,32.55,8.79,45.21,3.48,18.35,5.77,50.83,45.21,42.87,22.25-4.49,35.28-17.93,35.28-17.93l-15.91-81.87h-.02Z" style="fill: #fff;"/>
    </g>
  </g>
</svg>