<svg width="213" height="151" viewBox="0 0 213 151" fill="none" xmlns="http://www.w3.org/2000/svg">
<ellipse cx="106.5" cy="133" rx="106.5" ry="17.5" fill="#AEAEAE"/>
<path d="M166 1.5H50V47.5H166V1.5Z" fill="#CECECE" stroke="#6E6E6E" stroke-width="3"/>
<mask id="path-3-outside-1_6551_1986" maskUnits="userSpaceOnUse" x="30" y="48.5" width="155" height="93" fill="black">
<rect fill="white" x="30" y="48.5" width="155" height="93"/>
<path d="M33 48.5H182V126.5C182 133.127 176.627 138.5 170 138.5H45C38.3726 138.5 33 133.127 33 126.5V48.5Z"/>
</mask>
<path d="M33 48.5H182V126.5C182 133.127 176.627 138.5 170 138.5H45C38.3726 138.5 33 133.127 33 126.5V48.5Z" fill="white"/>
<path d="M33 48.5H182H33ZM185 126.5C185 134.784 178.284 141.5 170 141.5H45C36.7157 141.5 30 134.784 30 126.5H36C36 131.471 40.0294 135.5 45 135.5H170C174.971 135.5 179 131.471 179 126.5H185ZM45 141.5C36.7157 141.5 30 134.784 30 126.5V48.5H36V126.5C36 131.471 40.0294 135.5 45 135.5V141.5ZM185 48.5V126.5C185 134.784 178.284 141.5 170 141.5V135.5C174.971 135.5 179 131.471 179 126.5V48.5H185Z" fill="#6E6E6E" mask="url(#path-3-outside-1_6551_1986)"/>
<path d="M51.5 1.5V47H31.8584L32.5898 44.9873L48.5898 0.987305L51.5 1.5Z" fill="#AAAAAA" stroke="#6E6E6E" stroke-width="3" stroke-miterlimit="4.62023"/>
<path d="M51.5 1.5V47H31.8584L32.5898 44.9873L48.5898 0.987305L51.5 1.5Z" fill="#AAAAAA" stroke="#6E6E6E" stroke-width="3" stroke-miterlimit="4.62023"/>
<path d="M163.5 1.5V47H183.142L182.41 44.9873L166.41 0.987305L163.5 1.5Z" fill="#AAAAAA" stroke="#6E6E6E" stroke-width="3" stroke-miterlimit="4.62023"/>
<mask id="path-8-inside-2_6551_1986" fill="white">
<path d="M85 48.5H130V69.5H85V48.5Z"/>
</mask>
<path d="M85 48.5H130V69.5H85V48.5Z" fill="#ACACAC"/>
<path d="M130 69.5V72.5H133V69.5H130ZM85 69.5H82V72.5H85V69.5ZM130 48.5H127V69.5H130H133V48.5H130ZM130 69.5V66.5H85V69.5V72.5H130V69.5ZM85 69.5H88V48.5H85H82V69.5H85Z" fill="#6E6E6E" mask="url(#path-8-inside-2_6551_1986)"/>
<circle cx="72" cy="101.5" r="6" fill="#6E6E6E"/>
<circle cx="147" cy="101.5" r="6" fill="#6E6E6E"/>
<rect x="100" y="121.5" width="18" height="4" rx="2" fill="#6E6E6E"/>
</svg>
