<svg width="150" height="151" viewBox="0 0 150 151" fill="none" xmlns="http://www.w3.org/2000/svg"><path d="M75.001 145.429C108.603 145.429 135.842 118.189 135.842 84.588C135.842 50.9865 108.603 23.7471 75.001 23.7471C41.3996 23.7471 14.1602 50.9865 14.1602 84.588C14.1602 118.189 41.3996 145.429 75.001 145.429Z" fill="#EEEDF2"/><mask id="mask0_3361_81936" style="mask-type:luminance" maskUnits="userSpaceOnUse" x="14" y="23" width="122" height="123"><path d="M75.001 145.429C108.603 145.429 135.842 118.189 135.842 84.588C135.842 50.9865 108.603 23.7471 75.001 23.7471C41.3996 23.7471 14.1602 50.9865 14.1602 84.588C14.1602 118.189 41.3996 145.429 75.001 145.429Z" fill="white"/></mask><g mask="url(#mask0_3361_81936)"><path d="M116.843 160.62L176.045 165.428C158.408 149.13 122.224 114.851 121.095 111.948C118.512 105.303 114.083 92.9916 114.083 92.9916L90.5437 86.2715L52.0156 112.443C52.0156 112.443 67.1321 127.095 73.7322 129.918C80.3323 132.746 85.0799 132.521 89.6024 135.236C91.5712 136.417 105.593 149.816 116.847 160.62H116.843Z" fill="#80483F"/></g><path d="M91.3221 120.251C91.4909 120.21 91.5171 119.902 91.4646 119.407C91.4159 118.991 91.3596 118.642 91.2771 118.305C91.2359 118.136 91.1909 117.971 91.1421 117.802C91.1009 117.626 91.0596 117.457 91.0109 117.266C90.9621 117.064 90.9059 116.857 90.8421 116.651C90.7896 116.452 90.7371 116.239 90.6809 116.029C90.5271 115.507 90.3996 114.986 90.3846 114.438C90.3809 114.348 90.3509 114.202 90.3321 114.082C90.2871 113.745 90.2309 113.407 90.1934 113.07C90.1634 112.725 90.1334 112.387 90.1034 112.05C90.0884 111.57 90.0921 111.09 90.1034 110.606C90.1146 110.291 90.1484 109.957 90.0809 109.665C90.0621 109.586 90.0884 109.391 90.0959 109.248C90.1146 109.027 90.1296 108.802 90.1484 108.577C90.1896 108.168 90.2421 107.745 90.3059 107.351C90.3809 106.968 90.4484 106.631 90.4296 106.331C90.5796 105.813 90.7259 105.333 90.7746 104.793C90.7896 104.677 90.8271 104.512 90.8684 104.385C90.9996 103.916 91.1046 103.477 91.2171 103.035C91.4159 102.243 91.3859 101.898 91.3746 101.463C91.3746 101.43 91.3634 101.407 91.3484 101.411C91.1946 101.422 91.0971 101.231 90.7746 101.835C90.6809 102.011 90.5909 102.112 90.5084 102.378C90.4859 102.465 90.4334 102.607 90.4034 102.66C90.2421 102.926 90.1296 103.305 90.0171 103.665C89.9121 104.021 89.7846 104.362 89.6721 104.718C89.6309 104.876 89.5746 105.071 89.5634 105.202C89.4846 105.896 89.3571 106.567 89.2146 107.257C89.1808 107.456 89.1583 107.677 89.1396 107.887C89.0946 108.247 89.0758 108.611 89.0608 108.971C89.0383 109.335 89.0196 109.695 89.0233 110.058C89.0233 110.418 88.9671 110.793 88.9971 111.138C89.0158 111.435 89.0308 111.72 89.0346 112.005C89.0496 112.29 89.0608 112.567 89.0571 112.852C89.0571 112.961 89.0758 113.1 89.0871 113.223C89.1471 113.64 89.2108 114.06 89.2746 114.476C89.3308 114.768 89.3833 115.053 89.4396 115.335C89.4809 115.563 89.5221 115.796 89.5746 116.025C89.6121 116.224 89.6571 116.456 89.6946 116.659C89.8784 117.465 90.0659 118.099 90.2646 118.586C90.3584 118.83 90.4484 119.044 90.5309 119.224C90.6171 119.404 90.7034 119.55 90.7784 119.677C91.0784 120.176 91.2546 120.277 91.3296 120.259L91.3221 120.251Z" fill="#1A0E2F"/><path d="M69.3148 7.75907L32.5769 15.5948C28.6878 16.4243 26.2076 20.2494 27.0371 24.1384L45.8648 112.413C46.6943 116.302 50.5194 118.782 54.4084 117.953L91.1464 110.117C95.0354 109.288 97.5157 105.462 96.6862 101.573L77.8585 13.2989C77.029 9.40985 73.2039 6.92959 69.3148 7.75907Z" fill="#13002D"/><path d="M75.5908 16.2455L30.3164 25.9102L47.3159 105.545L92.5903 95.88L75.5908 16.2455Z" fill="white"/><path d="M70.7849 110.448C72.7048 110.448 74.2612 108.892 74.2612 106.972C74.2612 105.052 72.7048 103.496 70.7849 103.496C68.865 103.496 67.3086 105.052 67.3086 106.972C67.3086 108.892 68.865 110.448 70.7849 110.448Z" fill="#2A1942"/><path d="M44.6792 19.1342C45.0996 19.1342 45.4404 18.7934 45.4404 18.373C45.4404 17.9526 45.0996 17.6118 44.6792 17.6118C44.2588 17.6118 43.918 17.9526 43.918 18.373C43.918 18.7934 44.2588 19.1342 44.6792 19.1342Z" fill="#2A1942"/><path d="M55.5222 16.1231C55.5034 15.9806 55.3722 15.8944 55.1622 15.8269C54.8059 15.7144 54.5734 15.7744 54.2622 15.8156C54.0934 15.8381 53.9209 15.8906 53.7559 15.9394C53.5459 16.0031 53.3434 16.0931 53.1147 16.0744C53.0772 16.0744 53.0209 16.0931 52.9722 16.1044C52.7059 16.1719 52.4397 16.2431 52.1696 16.2994C51.9784 16.3406 51.7834 16.3556 51.5921 16.3931C51.4684 16.4156 51.3296 16.4231 51.2246 16.5056C51.1984 16.5281 51.1196 16.5356 51.0634 16.5506C50.9734 16.5694 50.8871 16.5844 50.7971 16.5994C50.6321 16.6294 50.4671 16.6669 50.3059 16.6856C50.1484 16.7006 50.0096 16.7269 49.9046 16.8056C49.6834 16.8056 49.4771 16.8169 49.2784 16.9219C49.2371 16.9444 49.1696 16.9631 49.1134 16.9706C48.9183 16.9969 48.7458 17.0644 48.5696 17.1244C48.2583 17.2331 48.1646 17.4056 48.0371 17.5631C48.0258 17.5744 48.0258 17.5931 48.0296 17.6044C48.0783 17.7131 48.0521 17.8519 48.3296 17.8706C48.4121 17.8781 48.4646 17.9081 48.5696 17.8706C48.6033 17.8594 48.6633 17.8519 48.6858 17.8594C48.8133 17.8969 48.9596 17.8519 49.1059 17.8294C49.2484 17.8106 49.3909 17.8069 49.5371 17.7919C49.6009 17.7844 49.6796 17.7806 49.7284 17.7581C49.9759 17.6381 50.2421 17.6044 50.5159 17.5781C50.5946 17.5706 50.6771 17.5519 50.7559 17.5331C51.0296 17.4694 51.3034 17.3981 51.5771 17.3381C51.7121 17.3081 51.8621 17.3081 51.9896 17.2669C52.2109 17.1994 52.4209 17.1581 52.6422 17.1506C52.6834 17.1506 52.7359 17.1319 52.7847 17.1169C52.9422 17.0756 53.0997 17.0306 53.2572 16.9894C53.3659 16.9594 53.4747 16.9331 53.5834 16.9069C53.6734 16.8844 53.7597 16.8656 53.8497 16.8506C53.9322 16.8356 54.0147 16.8281 54.0972 16.8131C55.3609 16.5919 55.5372 16.2506 55.5184 16.1231H55.5222Z" fill="#2A1942"/><path d="M75.5744 16.2522L30.293 25.9019L32.1829 34.7704L77.4643 25.1207L75.5744 16.2522Z" fill="#2A1942"/><path d="M52.9112 35.1021L41.2075 37.5962C40.0509 37.8427 39.3131 38.9801 39.5596 40.1367L39.5604 40.1404C39.8068 41.297 40.9443 42.0348 42.1009 41.7884L53.8045 39.2943C54.9612 39.0478 55.699 37.9104 55.4525 36.7537L55.4517 36.7501C55.2052 35.5934 54.0678 34.8556 52.9112 35.1021Z" fill="#13002D"/><path d="M45.8867 66.3853L52.5843 58.6226L61.0932 58.5964L67.5508 50.575L74.7771 45.3774" stroke="#F05537" stroke-width="0.628056" stroke-miterlimit="10"/><path d="M45.8882 67.0978C46.2817 67.0978 46.6007 66.7788 46.6007 66.3853C46.6007 65.9918 46.2817 65.6729 45.8882 65.6729C45.4948 65.6729 45.1758 65.9918 45.1758 66.3853C45.1758 66.7788 45.4948 67.0978 45.8882 67.0978Z" fill="#DAD9E2"/><path d="M52.5875 59.3351C52.9809 59.3351 53.2999 59.0161 53.2999 58.6226C53.2999 58.2291 52.9809 57.9102 52.5875 57.9102C52.194 57.9102 51.875 58.2291 51.875 58.6226C51.875 59.0161 52.194 59.3351 52.5875 59.3351Z" fill="#DAD9E2"/><path d="M61.0953 59.3087C61.4888 59.3087 61.8077 58.9897 61.8077 58.5962C61.8077 58.2028 61.4888 57.8838 61.0953 57.8838C60.7018 57.8838 60.3828 58.2028 60.3828 58.5962C60.3828 58.9897 60.7018 59.3087 61.0953 59.3087Z" fill="#DAD9E2"/><path d="M67.5523 51.2877C67.9458 51.2877 68.2648 50.9687 68.2648 50.5753C68.2648 50.1818 67.9458 49.8628 67.5523 49.8628C67.1588 49.8628 66.8398 50.1818 66.8398 50.5753C66.8398 50.9687 67.1588 51.2877 67.5523 51.2877Z" fill="#DAD9E2"/><path d="M74.7789 46.09C75.1723 46.09 75.4913 45.771 75.4913 45.3775C75.4913 44.984 75.1723 44.665 74.7789 44.665C74.3854 44.665 74.0664 44.984 74.0664 45.3775C74.0664 45.771 74.3854 46.09 74.7789 46.09Z" fill="#DAD9E2"/><path d="M48.8213 71.1406C50.22 70.8406 51.5963 71.7331 51.8963 73.1356C52.1963 74.5344 51.3038 75.9106 49.9013 76.2106C49.44 76.3081 48.9788 76.2781 48.5625 76.1431" stroke="#F05537" stroke-width="0.628056" stroke-miterlimit="10"/><path d="M48.5601 76.139C47.7088 75.8615 47.0263 75.1527 46.8276 74.2152C46.5276 72.8164 47.4201 71.4401 48.8226 71.1401" stroke="#13002D" stroke-width="0.628056" stroke-miterlimit="10"/><path d="M66.7678 68.4871L54.7349 71.0514C54.1758 71.1705 53.8192 71.7203 53.9384 72.2793L53.9391 72.283C54.0583 72.842 54.608 73.1986 55.1671 73.0795L67.2 70.5152C67.759 70.3961 68.1156 69.8463 67.9965 69.2873L67.9957 69.2836C67.8766 68.7246 67.3268 68.368 66.7678 68.4871Z" fill="#2A1942"/><path d="M50.2216 77.7294C51.6204 77.4294 52.9966 78.3219 53.2966 79.7245C53.5966 81.1232 52.7041 82.4995 51.3016 82.7995C49.9028 83.0995 48.5266 82.207 48.2266 80.8045" stroke="#F05537" stroke-width="0.628056" stroke-miterlimit="10"/><path d="M48.2299 80.8045C47.9299 79.4058 48.8224 78.0295 50.2249 77.7295" stroke="#13002D" stroke-width="0.628056" stroke-miterlimit="10"/><path d="M74.5086 73.7259L56.1334 77.6417C55.5743 77.7608 55.2177 78.3106 55.3368 78.8697L55.3376 78.8734C55.4567 79.4324 56.0065 79.7891 56.5656 79.6699L74.9408 75.7541C75.4998 75.635 75.8565 75.0852 75.7373 74.5261L75.7366 74.5224C75.6174 73.9634 75.0676 73.6067 74.5086 73.7259Z" fill="#2A1942"/><path d="M51.627 84.3183C53.0257 84.0183 54.402 84.9108 54.702 86.3133C55.002 87.7121 54.1095 89.0884 52.707 89.3884C51.3045 89.6884 49.9319 88.7959 49.6319 87.3933C49.5194 86.8683 49.5757 86.3433 49.7632 85.8821" stroke="#F05537" stroke-width="0.628056" stroke-miterlimit="10"/><path d="M49.7656 85.882C50.0769 85.1133 50.7556 84.5058 51.6293 84.3184" stroke="#13002D" stroke-width="0.628056" stroke-miterlimit="10"/><path d="M72.2361 81.0938L57.5396 84.2257C56.9806 84.3448 56.6239 84.8946 56.7431 85.4537L56.7438 85.4574C56.863 86.0164 57.4128 86.3731 57.9719 86.2539L72.6683 83.122C73.2274 83.0029 73.584 82.4531 73.4649 81.894L73.4641 81.8904C73.345 81.3313 72.7952 80.9747 72.2361 81.0938Z" fill="#2A1942"/><path d="M41.6758 46.6226L73.6338 39.8125" stroke="#13002D" stroke-width="0.628056" stroke-miterlimit="10"/><path d="M41.6773 47.3351C42.0708 47.3351 42.3898 47.0161 42.3898 46.6226C42.3898 46.2291 42.0708 45.9102 41.6773 45.9102C41.2838 45.9102 40.9648 46.2291 40.9648 46.6226C40.9648 47.0161 41.2838 47.3351 41.6773 47.3351Z" fill="#F05537" stroke="#CCCCCC" stroke-width="0.628056" stroke-miterlimit="10"/><path d="M52.3257 45.0665C52.7192 45.0665 53.0382 44.7475 53.0382 44.3541C53.0382 43.9606 52.7192 43.6416 52.3257 43.6416C51.9323 43.6416 51.6133 43.9606 51.6133 44.3541C51.6133 44.7475 51.9323 45.0665 52.3257 45.0665Z" fill="#F05537" stroke="#CCCCCC" stroke-width="0.628056" stroke-miterlimit="10"/><path d="M62.982 42.7941C63.3755 42.7941 63.6945 42.4751 63.6945 42.0816C63.6945 41.6881 63.3755 41.3691 62.982 41.3691C62.5885 41.3691 62.2695 41.6881 62.2695 42.0816C62.2695 42.4751 62.5885 42.7941 62.982 42.7941Z" fill="#F05537" stroke="#CCCCCC" stroke-width="0.628056" stroke-miterlimit="10"/><path d="M73.6343 40.525C74.0278 40.525 74.3468 40.206 74.3468 39.8126C74.3468 39.4191 74.0278 39.1001 73.6343 39.1001C73.2409 39.1001 72.9219 39.4191 72.9219 39.8126C72.9219 40.206 73.2409 40.525 73.6343 40.525Z" fill="#DAD9E2"/><path d="M53.6841 98.2457C54.8666 98.2457 55.8252 97.287 55.8252 96.1045C55.8252 94.922 54.8666 93.9634 53.6841 93.9634C52.5016 93.9634 51.543 94.922 51.543 96.1045C51.543 97.287 52.5016 98.2457 53.6841 98.2457Z" fill="#DAD9E2"/><path d="M60.9732 96.6895C62.1557 96.6895 63.1143 95.7309 63.1143 94.5484C63.1143 93.3658 62.1557 92.4072 60.9732 92.4072C59.7907 92.4072 58.832 93.3658 58.832 94.5484C58.832 95.7309 59.7907 96.6895 60.9732 96.6895Z" fill="#DAD9E2"/><path d="M68.2622 95.1368C69.4447 95.1368 70.4034 94.1781 70.4034 92.9956C70.4034 91.8131 69.4447 90.8545 68.2622 90.8545C67.0797 90.8545 66.1211 91.8131 66.1211 92.9956C66.1211 94.1781 67.0797 95.1368 68.2622 95.1368Z" fill="#DAD9E2"/><path d="M75.5591 93.5806C76.7416 93.5806 77.7002 92.622 77.7002 91.4395C77.7002 90.257 76.7416 89.2983 75.5591 89.2983C74.3766 89.2983 73.418 90.257 73.418 91.4395C73.418 92.622 74.3766 93.5806 75.5591 93.5806Z" fill="#DAD9E2"/><path d="M82.8482 92.0279C84.0307 92.0279 84.9893 91.0693 84.9893 89.8867C84.9893 88.7042 84.0307 87.7456 82.8482 87.7456C81.6656 87.7456 80.707 88.7042 80.707 89.8867C80.707 91.0693 81.6656 92.0279 82.8482 92.0279Z" fill="#DAD9E2"/><path d="M98.7759 92.467C98.7759 92.467 90.6833 90.3107 85.6207 86.4706C85.6207 86.4706 73.1443 88.4319 70.088 86.4406C67.028 84.4493 67.043 82.1805 74.8018 77.6505C82.557 73.1204 85.9283 71.4854 89.0671 72.7904C92.2096 74.0954 107.517 79.6868 109.494 83.0993C111.474 86.5156 114.08 92.9882 114.08 92.9882" fill="#80483F"/><path d="M32.3444 49.0071C32.3444 49.0071 22.3999 44.2673 21.5299 50.612C20.66 56.9567 35.1117 61.9777 35.1117 61.9777L32.3444 49.0071Z" fill="#80483F"/><path d="M35.6046 64.2925C35.6046 64.2925 28.3182 66.0438 27.737 71.5563C27.1557 77.0689 33.4033 86.1366 38.6534 86.1553C43.9034 86.1741 37.8584 70.9526 36.7558 69.7001L35.6008 64.2925H35.6046Z" fill="#80483F"/><path d="M35.3719 79.9302C35.3719 79.9302 29.758 86.159 30.6805 89.6053C31.6068 93.0516 41.8782 106.177 46.0295 102.539C48.962 99.9667 42.4895 85.9678 35.3681 79.9302H35.3719Z" fill="#80483F"/><path d="M37.132 97.3006C37.132 97.3006 33.517 100.826 35.0582 104.879C36.5995 108.933 44.9696 117.592 48.8434 113.932C53.4035 109.623 37.9645 94.7393 37.132 97.3043V97.3006Z" fill="#80483F"/><path d="M85.683 86.3956C85.563 86.5231 85.6492 86.748 85.8779 87.0705C86.2604 87.6292 86.6691 87.8617 87.1679 88.2142C87.4341 88.4055 87.7528 88.5555 88.0453 88.7092C88.4241 88.9079 88.8178 89.0504 89.1553 89.3167C89.2115 89.3617 89.3203 89.4029 89.4065 89.4479C89.8865 89.6804 90.374 89.8941 90.8539 90.1191C91.1952 90.2729 91.5251 90.4529 91.8664 90.6103C92.0914 90.7078 92.3239 90.8353 92.5563 90.8578C92.6201 90.8653 92.7588 90.9291 92.8601 90.9741C93.0176 91.0378 93.1788 91.1053 93.3438 91.1728C93.64 91.2966 93.9475 91.4166 94.2288 91.5403C94.5062 91.664 94.7537 91.7653 94.99 91.7803C95.3649 91.9715 95.7174 92.144 96.1374 92.2003C96.2274 92.2153 96.3549 92.2528 96.4524 92.2903C96.8049 92.4253 97.1499 92.5002 97.4986 92.5752C98.1173 92.714 98.3985 92.6052 98.7323 92.5377C98.7585 92.534 98.7735 92.519 98.7735 92.5003C98.7623 92.3503 98.901 92.2303 98.4473 92.0053C98.316 91.9378 98.241 91.8665 98.0386 91.8215C97.9748 91.8065 97.8698 91.769 97.8323 91.7428C97.6411 91.604 97.3598 91.5328 97.1049 91.4391C96.8461 91.3453 96.6099 91.2253 96.3586 91.1241C96.2499 91.0791 96.1112 91.0191 96.0174 91.0003C95.5112 90.9103 95.05 90.7153 94.585 90.4941C94.45 90.4304 94.3 90.3816 94.1538 90.3254C93.6588 90.1379 93.1601 89.9579 92.6726 89.7516C92.4289 89.6504 92.1926 89.5117 91.9601 89.4179C91.5589 89.2604 91.1839 89.0992 90.8389 88.8704C90.7714 88.8292 90.6777 88.7917 90.5952 88.7542C90.314 88.6304 90.0327 88.5105 89.759 88.3717C89.564 88.2742 89.3765 88.1805 89.189 88.0905C89.0353 88.0155 88.8853 87.933 88.7428 87.843C88.6228 87.768 88.4691 87.6705 88.3491 87.5918C87.3291 86.9655 86.7104 86.6243 86.3167 86.4593C85.9192 86.3018 85.743 86.3318 85.6905 86.3881L85.683 86.3956Z" fill="#1A0E2F"/><path d="M90.0316 84.1341C89.9641 83.9729 89.6941 83.9691 89.2778 84.0516C88.9291 84.1266 88.6403 84.2091 88.3666 84.3141C88.0966 84.4229 87.8341 84.5466 87.5303 84.6629C87.2078 84.7979 86.8703 84.9629 86.5478 85.1054C86.1353 85.3041 85.7265 85.4991 85.2728 85.5779C85.1978 85.5929 85.0815 85.6416 84.984 85.6716C84.7103 85.7616 84.4402 85.8591 84.1665 85.9416C83.8852 86.0204 83.6115 86.0991 83.3377 86.1779C82.944 86.2679 82.5427 86.3391 82.1452 86.4104C81.8827 86.4554 81.6015 86.4816 81.3727 86.5941C81.309 86.6241 81.144 86.6391 81.0277 86.6541C80.8439 86.6804 80.6564 86.7029 80.4652 86.7291C80.1202 86.7666 79.7639 86.8041 79.4302 86.8191C79.1002 86.8229 78.8152 86.8341 78.5714 86.9166C78.1177 86.8829 77.6939 86.8529 77.2476 86.9316C77.1501 86.9466 77.0076 86.9466 76.8951 86.9429C76.4864 86.9241 76.1039 86.9354 75.7176 86.9429C75.0314 86.9541 74.7539 87.0854 74.4014 87.2129C74.3751 87.2241 74.3601 87.2391 74.3639 87.2541C74.4051 87.4004 74.2664 87.5429 74.8251 87.6892C74.9901 87.7342 75.0876 87.7942 75.3239 87.7979C75.3989 87.7979 75.5264 87.8092 75.5751 87.8279C75.8264 87.9179 76.1601 87.9254 76.4751 87.9442C76.7901 87.9629 77.0939 88.0004 77.4051 88.0229C77.5401 88.0267 77.7127 88.0379 77.8252 88.0229C78.4064 87.9367 78.9839 87.9217 79.5764 87.9179C79.7452 87.9104 79.9289 87.8879 80.1052 87.8654C80.4089 87.8354 80.7089 87.7867 81.0127 87.7342C81.3127 87.6854 81.6165 87.6367 81.9127 87.5767C82.209 87.5167 82.5277 87.5017 82.809 87.4192C83.049 87.3517 83.2815 87.2954 83.5177 87.2429C83.7502 87.1866 83.979 87.1341 84.2152 87.0966C84.3052 87.0816 84.4177 87.0441 84.519 87.0104C84.8528 86.8941 85.194 86.7779 85.524 86.6616C85.7565 86.5716 85.9853 86.4854 86.2103 86.3991C86.394 86.3316 86.5815 86.2604 86.7615 86.1891C86.919 86.1329 87.114 86.0616 87.2715 86.0054C87.9166 85.7429 88.4191 85.5029 88.7978 85.2741C89.1803 85.0529 89.4503 84.8616 89.6341 84.6966C90.0053 84.3741 90.0578 84.1979 90.0316 84.1266V84.1341Z" fill="#1A0E2F"/><path d="M41.1878 83.3203C41.0116 83.2941 40.8803 83.4216 40.7078 83.5866C40.4116 83.8566 40.3329 84.0478 40.1341 84.2878C40.0291 84.4115 39.9279 84.554 39.8116 84.6815C39.6692 84.8428 39.5154 85.019 39.2829 85.049C39.2454 85.0565 39.1967 85.0902 39.1554 85.1127C38.9117 85.2365 38.6417 85.3265 38.3567 85.3677C38.158 85.394 37.9517 85.3715 37.7493 85.3565C37.6143 85.349 37.4793 85.304 37.3443 85.3565C37.3068 85.3715 37.2243 85.3452 37.1643 85.334C37.0705 85.3115 36.9768 85.289 36.883 85.2552C36.7143 85.199 36.5381 85.1465 36.3843 85.0565C36.2343 84.9702 36.1068 84.899 35.9606 84.8953C35.7769 84.7303 35.6156 84.584 35.3756 84.5053C35.3231 84.4903 35.2594 84.4453 35.2144 84.404C35.0494 84.2578 34.8694 84.149 34.6932 84.0291C34.3857 83.8116 34.1569 83.8266 33.9132 83.7966C33.8945 83.7966 33.8757 83.8003 33.8682 83.8153C33.7895 83.9353 33.6245 83.9915 33.7895 84.2953C33.8382 84.3853 33.8457 84.464 33.9582 84.5465C33.9957 84.5728 34.0444 84.629 34.0557 84.659C34.1157 84.8165 34.2732 84.9365 34.4119 85.064C34.5469 85.1915 34.6744 85.3265 34.8169 85.4502C34.8807 85.5027 34.9594 85.574 35.0231 85.5965C35.3644 85.7202 35.6569 85.9077 35.9756 86.0877C36.0656 86.1402 36.1781 86.1777 36.2831 86.2114C36.6468 86.3314 37.0218 86.4027 37.4005 86.4402C37.588 86.4589 37.7868 86.5077 37.9705 86.4889C38.2967 86.4589 38.3342 86.4552 38.8892 86.4064C38.9492 86.4027 39.0204 86.3727 39.0842 86.3539C39.3054 86.2789 39.5154 86.1852 39.7217 86.0727C39.8641 85.9939 39.9991 85.9077 40.1304 85.814C40.2354 85.739 40.3366 85.6602 40.4379 85.5777C40.5279 85.5027 40.6254 85.4315 40.7078 85.349C41.0341 85.0265 41.2216 84.6965 41.3228 84.419C41.4241 84.1415 41.4353 83.9128 41.4241 83.7516C41.3903 83.4216 41.2478 83.3353 41.1803 83.3241L41.1878 83.3203Z" fill="#1A0E2F"/><path d="M41.2053 81.838C41.3815 81.838 41.479 81.5943 41.5502 81.1668C41.6702 80.4394 41.5952 79.9219 41.4827 79.2507C41.4265 78.8869 41.344 78.5045 41.2428 78.1445C41.104 77.6832 40.9428 77.2445 40.9053 76.757C40.8978 76.6783 40.8453 76.5546 40.8115 76.4533C40.624 75.8796 40.4403 75.3059 40.2153 74.7434C40.1403 74.5447 40.0728 74.3422 40.0053 74.1397C39.9228 73.9372 39.8403 73.731 39.7616 73.5435C39.6491 73.2847 39.5591 72.996 39.3716 72.801C39.3229 72.7485 39.2479 72.5873 39.1916 72.4785C39.0979 72.3023 39.0154 72.1185 38.9141 71.946C38.7229 71.6311 38.5392 71.3011 38.3479 70.9973C38.1604 70.7011 37.9992 70.4349 37.7742 70.2736C37.6467 70.0674 37.5192 69.8687 37.373 69.6849C37.2192 69.5087 37.0542 69.3399 36.863 69.1899C36.7805 69.1224 36.6643 69.0249 36.5818 68.935C36.2855 68.6125 35.9518 68.3725 35.6181 68.1362C35.0181 67.72 34.6881 67.72 34.3244 67.6488C34.2944 67.645 34.2756 67.6488 34.2719 67.6675C34.2344 67.8138 34.0544 67.8738 34.4556 68.2787C34.5719 68.3987 34.6244 68.4962 34.8156 68.62C34.8756 68.6612 34.9693 68.74 34.9956 68.785C35.1456 68.9949 35.3856 69.1899 35.6068 69.3962C35.8093 69.6174 36.0043 69.8274 36.1805 70.0636C36.2593 70.1649 36.3605 70.2924 36.4393 70.3599C36.653 70.5361 36.8292 70.7499 37.0017 70.9636C37.1705 71.1811 37.3092 71.4248 37.4555 71.6611C37.5642 71.8373 37.6355 71.9535 37.7217 72.0885C38.0404 72.5723 38.3142 73.086 38.5804 73.6035C38.7004 73.8697 38.7866 74.1584 38.9141 74.4059C39.1204 74.8334 39.2629 75.2646 39.3791 75.7033C39.4016 75.7896 39.4391 75.8946 39.4729 75.9883C39.5816 76.3108 39.6941 76.6371 39.8028 76.9558C39.8778 77.1808 39.9303 77.4095 39.9941 77.6382C40.0391 77.8257 40.0841 78.0057 40.1328 78.1932C40.1741 78.362 40.2041 78.5345 40.2303 78.7069C40.3391 79.3707 40.4666 79.8919 40.5565 80.3119C40.6428 80.7318 40.7328 81.0393 40.8153 81.2681C40.9803 81.7218 41.1265 81.8418 41.2053 81.8418V81.838Z" fill="#1A0E2F"/><path d="M43.0533 88.612C42.8808 88.6532 42.8996 89.0245 43.0308 89.6394C43.2558 90.6744 43.5558 91.3718 43.9045 92.298C44.0808 92.8005 44.317 93.3217 44.5082 93.8242C44.7745 94.4654 45.0332 95.0954 45.1682 95.7741C45.187 95.8866 45.2507 96.0628 45.2957 96.2128C45.5582 97.0378 45.7569 97.8702 45.8957 98.7065C45.9782 99.2952 46.0044 99.8876 45.9669 100.45C45.9519 100.634 45.9182 100.814 45.8957 100.994C45.8507 101.159 45.8394 101.339 45.8057 101.481C45.7982 101.523 45.7757 101.59 45.7457 101.665C45.7082 101.729 45.6632 101.8 45.6257 101.86C45.5694 101.954 45.4907 102.021 45.4232 102.104C45.337 102.16 45.2695 102.239 45.172 102.276C45.0145 102.378 44.8082 102.419 44.602 102.46C44.3883 102.479 44.1633 102.482 43.942 102.445C43.507 102.381 43.1171 102.265 42.7608 102.216C42.1609 101.954 41.6396 101.658 41.0472 101.38C40.9197 101.32 40.7397 101.211 40.6084 101.11C40.1285 100.754 39.6672 100.428 39.221 100.064C38.4298 99.4152 38.0361 99.2427 37.5711 98.9914C37.5336 98.9727 37.5074 98.9689 37.5036 98.9877C37.4624 99.1452 37.2224 99.1302 37.7548 99.8014C37.9123 99.9964 37.9911 100.143 38.2611 100.375C38.3473 100.45 38.4861 100.581 38.5311 100.645C38.7635 100.964 39.161 101.279 39.536 101.579C39.911 101.879 40.2785 102.171 40.6872 102.434C40.8634 102.55 41.0922 102.689 41.2572 102.752C42.1121 103.075 42.9333 103.416 43.912 103.551C44.0508 103.574 44.2045 103.57 44.3583 103.574C44.5157 103.562 44.6732 103.555 44.8307 103.525C45.367 103.439 45.9332 103.161 46.3082 102.719C46.6831 102.28 46.8856 101.751 46.9794 101.256C47.0281 101.009 47.0619 100.761 47.0919 100.514C47.0994 100.274 47.1256 100.026 47.1031 99.8014C47.0581 99.0214 46.9269 98.324 46.8406 97.604C46.8256 97.4653 46.7694 97.2965 46.7319 97.1428C46.6044 96.6216 46.4431 96.1153 46.2857 95.6054C46.1769 95.2566 46.0494 94.9116 45.9369 94.5667C45.8469 94.2854 45.7419 94.0117 45.6482 93.7342C45.5657 93.4867 45.4757 93.2167 45.3932 92.9692C45.0332 92.0018 44.7145 91.2406 44.4295 90.6519C44.1558 90.0594 43.912 89.6357 43.7208 89.3282C43.3383 88.717 43.1396 88.5857 43.0646 88.6007L43.0533 88.612Z" fill="#1A0E2F"/></svg>